<svg id="图层_1" data-name="图层 1" xmlns="http://www.w3.org/2000/svg" viewBox="0 0 364 86"><title>logo-svg</title><path d="M18.44,4.1H29.27L49.68,53,71,4.1H81.85L94.76,81H79.54L72.63,33.61,52,81H46.91L27.2,33.61,19.36,81H4.14Z"/><path d="M112.89,4.1V81h-15V4.1Z"/><path d="M134.93,4.1V81H120V4.1Z"/><path d="M142,81V4.1h10.38l46.81,51.31V4.1h15V81H203.79L157,29.58V81Z"/><path d="M251.07,17V81h-15V17h-17.3V4.1h49.58V17Z"/><path d="M347.24,42.61c0,23.4-16.83,40.12-41,40.12S265.15,66,265.15,42.61,282,2.37,306.2,2.37,347.24,19.2,347.24,42.61Zm-15.45,0C331.79,27,321.19,16,306.2,16S280.6,27,280.6,42.61s10.61,26.52,25.6,26.52S331.79,58.17,331.79,42.61Z"/><path d="M350.74,64.51a9,9,0,1,1-9,9A8.86,8.86,0,0,1,350.74,64.51Z"/></svg>