<?xml version="1.0" encoding="UTF-8"?>
<svg width="24px" height="24px" viewBox="0 0 24 24" version="1.1" xmlns="http://www.w3.org/2000/svg" xmlns:xlink="http://www.w3.org/1999/xlink">
    <!-- Generator: Sketch 62 (91390) - https://sketch.com -->
    <title>豆瓣-默认@1x</title>
    <desc>Created with Sketch.</desc>
    <g id="页面-1" stroke="none" stroke-width="1" fill="none" fill-rule="evenodd">
        <g id="SVG-切图" transform="translate(-177.000000, -263.000000)">
            <g id="分享-默认" transform="translate(81.000000, 263.000000)">
                <g id="豆瓣-默认" transform="translate(96.000000, 0.000000)">
                    <circle id="椭圆形" stroke="#E6E6E6" fill="#FFFFFF" cx="12" cy="12" r="11.5"></circle>
                    <g id="豆瓣" transform="translate(7.000000, 7.000000)" fill="#666666" fill-rule="nonzero">
                        <path d="M0,10 L10,10 L10,8.97235263 L7.07,8.97235263 C7.50493754,8.28509704 7.88376952,7.56093724 8.2025,6.80751174 L7.4325,6.28586333 L8.845,6.28586333 L8.845,2.21178925 L1.25,2.21178925 L1.25,6.27543036 L2.6,6.27543036 L1.8325,6.79707877 C2.28395096,7.48382193 2.67472088,8.21190037 3,8.97235263 L0,8.97235263 L0,10 Z M2.315,5.2608242 L2.315,3.25769431 L7.78,3.25769431 L7.78,5.2608242 L2.315,5.2608242 Z M2.7975,6.28586333 L7.25,6.28586333 C6.89461174,7.22867986 6.4499073,8.13213244 5.9225,8.9827856 L4.1025,8.9827856 C3.7253929,8.05120487 3.28943469,7.14676522 2.7975,6.27543036 L2.7975,6.28586333 Z M0.29,0 L9.7775,0 L9.7775,1.0172144 L0.29,1.0172144 L0.29,0 Z" id="形状"></path>
                    </g>
                </g>
            </g>
        </g>
    </g>
</svg>