<?xml version="1.0" encoding="UTF-8"?>
<svg width="24px" height="24px" viewBox="0 0 24 24" version="1.1" xmlns="http://www.w3.org/2000/svg" xmlns:xlink="http://www.w3.org/1999/xlink">
    <!-- Generator: Sketch 62 (91390) - https://sketch.com -->
    <title>空间-默认@1x</title>
    <desc>Created with Sketch.</desc>
    <g id="页面-1" stroke="none" stroke-width="1" fill="none" fill-rule="evenodd">
        <g id="SVG-切图" transform="translate(-145.000000, -263.000000)">
            <g id="分享-默认" transform="translate(81.000000, 263.000000)">
                <g id="空间-默认" transform="translate(64.000000, 0.000000)">
                    <circle id="椭圆形" stroke="#E6E6E6" fill="#FFFFFF" cx="12" cy="12" r="11.5"></circle>
                    <g id="QQ空间" transform="translate(5.000000, 5.000000)"></g>
                    <path d="M18.8209136,9.85998156 C17.7550724,9.49320388 14.3278386,9.34676756 14.3278386,9.34676756 C14.3278386,9.34676756 12.5182795,5.5721927 12.208871,5.12717261 C12.0461603,4.89307825 11.8001982,5.03675162 11.7219657,5.12717261 C10.9398804,6.03161409 9.54049181,9.34676756 9.54049181,9.34676756 C9.54049181,9.34676756 6.06768883,9.72692779 5.38099609,9.82194856 C4.69425555,9.97398796 5.14554993,10.4871711 5.14554993,10.4871711 L8.48099205,13.3382571 C8.48099205,13.3382571 7.69613434,16.6264757 7.49997966,17.4438611 C7.34302087,18.22309 8.10823284,17.9557168 8.10823284,17.9557168 L12.0872682,15.7712425 C12.0872682,15.7712425 15.1127601,17.5388664 15.7601773,17.8620234 C16.3880762,18.1471784 16.3880762,17.6909676 16.3880762,17.6909676 L15.8114665,14.1883811 C15.9318584,14.1480483 16.4545658,13.8958635 16.5785746,13.7479763 C16.5114636,13.7588274 16.4499133,13.7688142 16.3933023,13.7781217 C16.2689112,13.8123576 16.0518042,13.8514711 15.7629019,13.8917268 L15.7627903,13.8917577 L15.7627903,13.8917422 C14.3442977,14.0896096 11.2041977,14.3143192 8.89940013,14.103131 C9.29553347,13.8289507 13.0685196,10.9598052 13.0685196,10.9598052 C13.0685196,10.9598052 12.4271092,10.6126152 8.14479973,10.5394202 C8.14479973,10.5394202 12.0875231,9.86322301 15.3700349,10.5394202 C13.8985641,11.5080269 11.0122335,13.5731387 11.0122335,13.5731387 C11.0122335,13.5731387 13.1629561,13.8529683 15.7470323,13.7960732 L15.662315,13.281223 C15.662315,13.281223 18.3699379,10.8102664 18.8212323,10.3541636 C19.154955,10.0652116 18.9413533,9.90139493 18.8212004,9.859997 L18.8209136,9.85998156 Z" id="路径" fill="#666666" fill-rule="nonzero"></path>
                </g>
            </g>
        </g>
    </g>
</svg>