<?xml version="1.0" encoding="UTF-8"?>
<svg width="24px" height="24px" viewBox="0 0 24 24" version="1.1" xmlns="http://www.w3.org/2000/svg" xmlns:xlink="http://www.w3.org/1999/xlink">
    <!-- Generator: Sketch 62 (91390) - https://sketch.com -->
    <title>微信-默认@1x</title>
    <desc>Created with Sketch.</desc>
    <g id="页面-1" stroke="none" stroke-width="1" fill="none" fill-rule="evenodd">
        <g id="SVG-切图" transform="translate(-81.000000, -263.000000)">
            <g id="分享-默认" transform="translate(81.000000, 263.000000)">
                <g id="微信-默认">
                    <circle id="椭圆形" stroke="#E6E6E6" fill="#FFFFFF" cx="12" cy="12" r="11.5"></circle>
                    <g id="微信" transform="translate(5.000000, 7.000000)" fill="#666666" fill-rule="nonzero">
                        <path d="M9.47724288,3.32817074 C9.63832436,3.32817074 9.79718391,3.33965786 9.95449634,3.35632703 C9.52589485,1.43090147 7.39139656,0 4.95520995,0 C2.23135785,0 0,1.79094914 0,4.06491919 C0,5.37730753 0.742518633,6.45520443 1.98284766,7.29122991 L1.48732502,8.72938304 L3.21937473,7.891304 C3.83953925,8.00946419 4.33655962,8.13131439 4.95520995,8.13131439 C5.11062962,8.13131439 5.26451864,8.12393439 5.41766703,8.1120943 C5.32075809,7.79279707 5.26451866,7.4579537 5.26451866,7.11085313 C5.26453511,5.02282694 7.12349799,3.32817074 9.47724288,3.32817074 Z M6.81341575,2.03209862 C7.18656781,2.03209862 7.4335638,2.269157 7.4335638,2.62883567 C7.4335638,2.98702229 7.18656781,3.22704872 6.81341575,3.22704872 C6.44176143,3.22704872 6.06936646,2.98702229 6.06936646,2.62883567 C6.06936646,2.269157 6.44177788,2.03209862 6.81341575,2.03209862 Z M3.34553082,3.22703266 C2.9738765,3.22703266 2.59919376,2.98700623 2.59919376,2.62881962 C2.59919376,2.26914095 2.9738765,2.03208257 3.34553082,2.03208257 C3.71677368,2.03208257 3.96416467,2.26914095 3.96416467,2.62881962 C3.96416467,2.98702229 3.71677368,3.22703266 3.34553082,3.22703266 Z M14,7.05343351 C14,5.14246313 12.0175309,3.58486633 9.79111065,3.58486633 C7.4335638,3.58486633 5.57688869,5.14246314 5.57688869,7.05343351 C5.57688869,8.96717942 7.43356382,10.5214392 9.79111065,10.5214392 C10.2843455,10.5214392 10.7821559,10.4021399 11.2776457,10.2821508 L12.6369548,11 L12.2641483,9.80578791 C13.2590285,9.08570861 14,8.13131437 14,7.05343351 Z M8.42460908,6.45520443 C8.17800809,6.45520443 7.9291029,6.21851505 7.9291029,5.97699657 C7.9291029,5.73883118 8.17800811,5.49917375 8.42460908,5.49917375 C8.79929181,5.49917375 9.0447736,5.73883118 9.0447736,5.97699657 C9.0447736,6.21851505 8.79929181,6.45520443 8.42460908,6.45520443 Z M11.1499754,6.45520443 C10.9052836,6.45520443 10.6578926,6.21851505 10.6578926,5.97699657 C10.6578926,5.73883118 10.9052836,5.49917375 11.1499754,5.49917375 C11.5216297,5.49917375 11.7701399,5.73883118 11.7701399,5.97699657 C11.7701399,6.21851505 11.5216297,6.45520443 11.1499754,6.45520443 Z" id="形状"></path>
                    </g>
                </g>
            </g>
        </g>
    </g>
</svg>