<?xml version="1.0" encoding="UTF-8"?>
<svg width="24px" height="24px" viewBox="0 0 24 24" version="1.1" xmlns="http://www.w3.org/2000/svg" xmlns:xlink="http://www.w3.org/1999/xlink">
    <!-- Generator: Sketch 62 (91390) - https://sketch.com -->
    <title>微博-默认@1x</title>
    <desc>Created with Sketch.</desc>
    <g id="页面-1" stroke="none" stroke-width="1" fill="none" fill-rule="evenodd">
        <g id="SVG-切图" transform="translate(-113.000000, -263.000000)">
            <g id="分享-默认" transform="translate(81.000000, 263.000000)">
                <g id="微博-默认" transform="translate(32.000000, -0.000000)">
                    <circle id="椭圆形" stroke="#E6E6E6" fill="#FFFFFF" cx="12" cy="12" r="11.5"></circle>
                    <g id="微博-" transform="translate(5.000000, 6.000000)"></g>
                    <path d="M7.19359558,9.34903548 C9.06191121,7.3688258 11.2555068,6.46469012 12.0683512,7.3258883 C12.4334468,7.71289076 12.472907,8.3590248 12.2306357,9.17653219 C12.1094111,9.56334633 12.5939538,9.34847051 12.5939538,9.34847051 C14.0971738,8.65996394 15.44042,8.61702644 15.9249627,9.34847051 C16.1722111,9.84703648 16.1722111,10.4425468 15.9249627,10.9411128 C15.8039159,11.1977961 15.9644229,11.2399804 16.1672341,11.3260437 L16.1672341,11.3260437 C17.0248711,11.6301843 18,12.3186909 18,13.5237657 C18,15.5039754 15.31884,18 11.2562178,18 C8.16872445,18 5,16.4079227 5,13.7823323 C5,12.4045659 5.81213339,10.8556144 7.19359558,9.34903548 Z M15.4363318,13.4781917 C15.2740473,11.7996744 13.1616829,10.5945996 10.683334,10.8526012 C8.20498516,11.1106029 6.33666954,12.7030568 6.49895402,14.4246999 C6.6612385,16.1032171 8.77378071,17.3069737 11.2519518,17.0502903 C13.7301229,16.7917237 15.5991495,15.1998347 15.4363318,13.4781917 Z M7.21458389,13.3479768 C7.83496494,12.3050464 9.15157655,11.7838404 10.4059236,12.0843634 L10.4059236,12.0843634 C10.5572453,12.109767 10.7055481,12.1521063 10.8468697,12.2101717 C11.8300831,12.6142101 12.2697083,13.6716568 11.8285736,14.5721888 C11.2157398,15.710858 9.78403315,16.2659355 8.46496869,15.8758951 C8.32081689,15.8428876 8.18119342,15.7946726 8.04911716,15.7324597 C7.09986622,15.2850452 6.72609041,14.2175752 7.21458389,13.3479768 Z M9.1568596,13.7824304 C8.726291,13.6367485 8.2428919,13.7834673 7.99251305,14.1356615 C7.96326759,14.1710883 7.9381731,14.2092801 7.91760694,14.2497185 C7.75779467,14.5640666 7.9064748,14.9375169 8.24968439,15.0837172 C8.69213985,15.255494 9.20535046,15.105319 9.45705007,14.7304861 L9.45705007,14.7304861 C9.50552324,14.6746786 9.54249427,14.6130368 9.56705072,14.546958 C9.68422123,14.2320915 9.50063523,13.8899205 9.1568596,13.7824304 Z M14.4409251,6.09397673 C15.7568913,5.77650219 17.1237531,6.27599038 18.0199583,7.40184211 C18.9127591,8.54982547 19.2215371,10.1289942 18.8387136,11.5904455 C18.7216027,11.894374 18.4257613,12.0592165 18.1387714,11.9804203 C18.0095355,11.916661 17.9008252,11.810061 17.8272699,11.6749655 C17.756988,11.5274786 17.7429873,11.3543775 17.7884599,11.1951287 C17.9612682,10.6306407 17.9758033,10.0328216 17.8456493,9.47544628 C17.8358886,9.64894428 17.8050316,9.82230576 17.7516852,9.99140307 C17.749019,10.0019491 17.7459972,10.0126835 17.74262,10.0230412 C17.6583672,10.285186 17.3896113,10.4252978 17.142363,10.336033 C16.8798283,10.2328323 16.7378071,9.9318932 16.817083,9.64714978 C16.9178382,9.30229032 16.8408988,8.92671533 16.6142718,8.6571391 C16.3883433,8.39498953 16.0477651,8.2801154 15.7203741,8.355635 C15.4624609,8.41495654 15.2077471,8.24132332 15.1517563,7.96806757 C15.0957655,7.69481181 15.2594719,7.42494586 15.5175629,7.36562432 C15.6402654,7.34103047 15.7635632,7.32901962 15.8859632,7.32906439 C15.4941739,7.22334547 15.0799421,7.21485871 14.6729341,7.31484187 C14.3721565,7.38657891 14.0763151,7.17155859 14.0123126,6.83443268 C13.9483101,6.49730677 14.1401474,6.16571377 14.4409251,6.09397673 Z" id="形状结合" fill="#666666" fill-rule="nonzero"></path>
                </g>
            </g>
        </g>
    </g>
</svg>