<?xml version="1.0" standalone="no"?><!DOCTYPE svg PUBLIC "-//W3C//DTD SVG 1.1//EN" "http://www.w3.org/Graphics/SVG/1.1/DTD/svg11.dtd"><svg t="1655971281306" class="icon" viewBox="0 0 1024 1024" version="1.1" xmlns="http://www.w3.org/2000/svg" p-id="6833" xmlns:xlink="http://www.w3.org/1999/xlink" width="26" height="26"><defs><style type="text/css">@font-face { font-family: feedback-iconfont; src: url("//at.alicdn.com/t/font_1031158_u69w8yhxdu.woff2?t=1630033759944") format("woff2"), url("//at.alicdn.com/t/font_1031158_u69w8yhxdu.woff?t=1630033759944") format("woff"), url("//at.alicdn.com/t/font_1031158_u69w8yhxdu.ttf?t=1630033759944") format("truetype"); }
</style></defs><path d="M423.872 595.712c-15.744-6.592-36.032 0.192-45.76 15.296-9.792 15.232-5.248 33.344 10.368 40.512 15.872 7.104 36.864 0.384 46.656-15.232 9.728-15.872 4.608-33.856-11.264-40.576z m38.784-16c-6.016-2.368-13.632 0.448-17.152 6.4-3.456 5.888-1.472 12.672 4.48 15.168 6.144 2.56 14.016-0.384 17.472-6.4 3.456-6.144 1.28-12.928-4.8-15.168z m-24.512-105.024C336.64 484.672 259.648 546.624 266.24 612.992c6.656 66.368 94.208 112.128 195.712 102.144s178.432-71.936 171.84-138.368C627.264 510.4 539.648 464.64 438.144 474.688z m88.96 156.544c-20.672 46.656-80.256 71.616-130.816 55.36-48.768-15.744-69.44-63.744-48.064-106.944 20.928-42.432 75.52-66.368 123.84-53.888 49.984 12.864 75.584 59.84 55.04 105.472zM512 64a448 448 0 1 0 0.064 896.064A448 448 0 0 0 512 64z m-49.344 695.616c-127.232 0-257.216-61.44-257.216-162.496 0-52.8 33.536-113.856 91.392-171.52C374.016 348.672 464.064 313.6 497.92 347.328c14.976 14.912 16.448 40.704 6.848 71.424-4.992 15.488 14.528 6.912 14.528 6.976 62.464-26.048 116.864-27.584 136.832 0.768 10.624 15.104 9.536 36.288-0.256 60.864-4.48 11.264 1.408 13.056 10.048 15.616 35.2 10.88 74.304 37.184 74.304 83.456 0 76.608-110.912 173.184-277.568 173.184z m230.208-321.28a38.72 38.72 0 0 0-44.864-49.472 20.16 20.16 0 1 1-8.448-39.488c26.688-5.632 55.68 2.56 75.264 24.256 19.648 21.696 24.896 51.2 16.448 77.056a20.096 20.096 0 0 1-25.344 12.992 20.032 20.032 0 0 1-13.056-25.344z m117.76 37.888v0.064a23.488 23.488 0 0 1-44.736-14.464c12.224-37.76 4.48-80.896-24.128-112.512a115.456 115.456 0 0 0-109.76-35.392 23.424 23.424 0 1 1-9.856-45.696h0.064a162.368 162.368 0 0 1 154.432 49.856c40.32 44.416 51.136 105.024 33.984 158.144z m0 0" fill="#2c2c2c" p-id="6834"></path></svg>