<?xml version="1.0" encoding="UTF-8"?>
<svg width="64px" height="18px" viewBox="0 0 64 18" version="1.1" xmlns="http://www.w3.org/2000/svg" xmlns:xlink="http://www.w3.org/1999/xlink">
    <!-- Generator: Sketch 62 (91390) - https://sketch.com -->
    <title>微信支付@1x</title>
    <desc>Created with Sketch.</desc>
    <g id="页面-1" stroke="none" stroke-width="1" fill="none" fill-rule="evenodd">
        <g id="SVG-切图" transform="translate(-455.000000, -180.000000)" fill="#000000" fill-rule="nonzero">
            <g id="微信支付" transform="translate(455.000000, 180.000000)">
                <path d="M10.3388744,0 C13.8335689,0 16.9410395,1.42166646 18.7948733,3.59710241 L18.7948733,3.59710241 L8.34467203,8.18173824 C8.0386161,8.29278482 7.69722734,8.25382402 7.42501561,8.07678299 L7.42501561,8.07678299 L5.20331927,6.52153712 C5.14334955,6.47719119 5.07015054,6.45370167 4.99518651,6.45474743 C4.80538774,6.45474743 4.65152544,6.60639717 4.65152543,6.7934666 C4.65250788,6.84298797 4.66405201,6.89175137 4.6854075,6.93658739 L4.6854075,6.93658739 L6.56828304,10.996447 L6.6118457,11.0918609 C6.79235565,11.408046 7.19355437,11.5279368 7.52182154,11.3637904 L7.52182154,11.3637904 L7.52666184,11.4067266 L7.60410659,11.3637904 L19.5451193,4.57986513 C20.3082085,5.75520075 20.7161627,7.12031353 20.7213115,8.51568674 C20.7213115,13.1957364 16.0891472,17.0122907 10.3775968,17.0122907 C9.23109535,17.0105029 8.09053814,16.8499092 6.98938888,16.5352214 C6.89071488,16.5044629 6.78793772,16.4883837 6.68445017,16.4875145 C6.49115218,16.4909907 6.30231292,16.5453454 6.1374966,16.6449473 L6.1374966,16.6449473 L3.87223761,17.9330344 C3.80537028,17.978222 3.72579913,18.0015832 3.64474365,17.9999167 C3.45494487,17.9999167 3.30108256,17.8481744 3.30108256,17.6611049 C3.30830203,17.5765535 3.3261877,17.4932189 3.35432582,17.4130289 L3.35432582,17.4130289 L3.83835552,15.7003502 C3.86018207,15.6275277 3.87158618,15.5520584 3.87223761,15.4761276 C3.87013921,15.2543662 3.7580459,15.047659 3.57213918,14.9227272 C1.39400554,13.3627107 0,11.058466 0,8.50137465 C0,3.80701289 4.63216424,0 10.3388744,0 Z M62.6408346,4.62855 L62.6408346,6.84234361 L64,6.84234361 L64,7.32465159 L62.6503726,7.32465159 L62.6503726,13.0544703 C62.6503726,13.5416014 62.4929955,13.7055861 62.1734724,13.7875785 C61.852809,13.8574284 61.5255924,13.8901063 61.1981414,13.8851626 L60.952608,13.8743939 L60.952608,13.4403167 C61.4724292,13.4354936 61.6250373,13.4017321 61.8539493,13.3824398 C62.0542474,13.365559 62.1413562,13.3154442 62.1600037,13.144856 L62.1639344,13.0641165 L62.1639344,7.3198285 L57.9672131,7.3198285 L57.9672131,6.83752053 L62.1639344,6.83752053 L62.1639344,4.62855 L62.6408346,4.62855 Z M36.7864473,4.67102489 L37.27302,4.9305937 C37.1061645,5.45781202 36.9117406,5.9763217 36.6905402,6.48411693 L36.4604437,6.98826639 L36.4604437,13.6285083 L35.973871,13.6285083 L35.973871,8.00766387 C35.7143656,8.46576348 35.4548602,8.88761784 35.1953548,9.27322696 L35.0007258,9.55563782 L34.7282451,9.08369454 C35.6569321,7.7310358 36.3521128,6.24060759 36.7864473,4.67102489 Z M26.2132242,7.15816598 L26.6657368,7.40357648 C26.5394651,7.69631383 26.4020756,7.98436233 26.2538622,8.26713454 L26.0234609,8.6872622 L26.0234609,13.6285083 L25.5368883,13.6285083 L25.5368883,9.47540746 C25.3509094,9.71872045 25.1591638,9.95853756 24.9616513,10.1948588 L24.6610576,10.5467187 L24.3934426,10.0747754 C25.0740329,9.3091611 25.6306912,8.44857083 26.0450731,7.5225791 L26.1937613,7.17232428 L26.2132242,7.15816598 Z M49.7837734,4.37140833 L49.7837734,6.06838443 L53.774495,6.06838443 L53.774495,6.54506311 L49.7837734,6.54506311 L49.7837734,8.31830781 L52.516813,8.31830781 L52.840908,8.53281322 L52.8312336,8.55664715 C52.2417076,9.88808007 51.2633562,11.0164613 50.020798,11.7980622 C51.1484581,12.4214923 52.3757727,12.848193 53.6485393,13.0604451 L54.0744038,13.1232289 L53.9437984,13.5522397 L53.9437984,13.5856072 C52.4046109,13.3828963 50.9233842,12.8736394 49.5902838,12.0888362 C48.3701072,12.759192 47.056758,13.2475561 45.6931193,13.5387625 L45.2367693,13.6285083 L45.2367693,13.6046744 L45.0964893,13.1279957 C46.5138437,12.8838318 47.8813526,12.4137042 49.1452579,11.7360939 C48.148833,11.0506267 47.3322338,10.1437067 46.7603863,9.0905477 L46.610545,8.79975327 L46.610545,8.32307458 L49.3242357,8.32307458 L49.3242357,6.53076275 L45.3431885,6.53076275 L45.3431885,6.05408407 L49.3000495,6.05408407 L49.3000495,4.37140833 L49.7837734,4.37140833 Z M57.547541,4.46197727 L57.9925669,4.60021409 C57.7424727,5.24559529 57.4491065,5.87366605 57.1144855,6.48029041 L56.8558159,6.93117285 L56.8558159,13.6046744 L56.3720921,13.6046744 L56.3720921,7.69862552 C56.0838082,8.12763815 55.7628465,8.53420287 55.4120656,8.9148372 L55.1434335,9.19539657 L55.1434335,9.16679586 L54.9402695,8.6472161 C56.0875458,7.44017878 56.9745106,6.01640701 57.547541,4.46197727 Z M43.3454463,10.7449349 L43.3454463,13.6001917 L38.1488507,13.6001917 L38.1488507,10.7449349 L43.3454463,10.7449349 Z M32.224598,4.57638015 C32.1420223,5.00996304 32.0312568,5.43771217 31.8930448,5.85699417 L31.7457114,6.27335627 L33.8982825,6.27335627 L33.8982825,6.75003495 L33.361349,6.75003495 C33.232356,8.66628324 32.8872996,10.1280979 32.32618,11.1354788 C32.6763478,11.7436543 33.1063737,12.3030505 33.6047524,12.7993614 L33.8595846,13.0421935 L33.5790247,13.5188722 C32.990995,12.9496556 32.4789618,12.3089245 32.0552946,11.6121575 C31.6851904,12.2251244 31.2329227,12.7854583 30.7111274,13.2782021 L30.4444943,13.5188722 L30.1639344,13.0421935 C30.8160151,12.4972637 31.376059,11.8536634 31.8231072,11.1354788 C31.3776023,10.1288042 31.1061934,9.05575802 31.0201256,7.9607988 C30.9838463,8.03706739 30.9321483,8.13389274 30.8650317,8.25127487 L30.7927754,8.37550925 L30.5799369,8.79975327 L30.2897026,8.32307458 C30.9069082,7.29243636 31.3631411,6.17705869 31.6438601,5.01448449 L31.7408741,4.57638015 L32.224598,4.57638015 Z M29.7408757,10.0417394 L29.7408757,11.8634405 L30.5096605,11.2215976 L30.4950633,11.1838421 L30.7286182,11.575555 C30.1505699,12.0682638 29.7288574,12.4208055 29.4634807,12.6331799 L29.380812,12.6987801 L29.0888684,12.2268368 C29.1985212,12.0679921 29.2600677,11.8835914 29.2681147,11.6944129 L29.2640346,11.5519579 L29.2640346,10.4664884 L27.7070022,10.4664884 L27.7070022,10.9384316 C27.8099335,11.7926779 27.4935426,12.6404131 26.8598667,13.2320197 L26.7192598,13.3547812 L26.4516448,12.8828379 C26.9968378,12.4971929 27.2567404,11.8565379 27.2313526,10.960873 L27.2204296,10.7496543 L27.2204296,10.0417394 L29.7408757,10.0417394 Z M42.8296793,11.1838421 L38.6500205,11.1838421 L38.6500205,13.156565 L42.8296793,13.156565 L42.8296793,11.1838421 Z M52.1491829,8.83788756 L47.1910136,8.83788756 C47.7468686,9.92308661 48.5805576,10.8465052 49.6096328,11.5168218 C50.6933292,10.8749699 51.573042,9.94697374 52.1491829,8.83788756 Z M58.9842008,8.43747748 C59.5031045,9.19149647 60.125949,10.1700666 60.4893052,10.8001706 L60.5901639,10.9781748 L60.1548125,11.2546485 C59.7685219,10.5382174 59.3523326,9.8379337 58.907333,9.15558597 L58.5681983,8.6472161 L58.9842008,8.43747748 Z M31.5909198,6.77863566 C31.514568,6.93260269 31.4498945,7.0919315 31.3974302,7.25531434 C31.4920767,8.40352209 31.7376032,9.53476124 32.1278532,10.6206658 C32.5685351,9.54160773 32.8323534,8.40135375 32.9103247,7.24256687 L32.9308348,6.80723639 L31.5909198,6.77863566 Z M43.4865524,8.9326727 L43.4865524,9.40461598 L38.0077446,9.40461598 L38.0077446,8.9326727 L43.4865524,8.9326727 Z M30.0522822,8.6164707 L30.0522822,9.08841398 L27.1036521,9.08841398 L27.1036521,8.6164707 L30.0522822,8.6164707 Z M43.4865524,7.4366125 L43.4865524,7.90855578 L38.0077446,7.90855578 L38.0077446,7.4366125 L43.4865524,7.4366125 Z M28.8455821,4.79844959 L28.8455821,7.19592145 L29.8187274,7.19592145 L29.8187274,5.51108395 L30.2809714,5.51108395 L30.2809714,7.64426756 L26.9236203,7.64426756 L26.9236203,5.51108395 L27.4101929,5.51108395 L27.4101929,7.19120201 L28.3590095,7.19120201 L28.3590095,4.79844959 L28.8455821,4.79844959 Z M26.2472843,4.70878035 L26.6754682,4.94947143 L26.680334,4.96362972 C26.2631057,5.79924736 25.7224088,6.57051572 25.0759229,7.25330399 L24.7924322,7.54044003 L24.5150858,7.06849675 C25.2360606,6.39100119 25.823129,5.5912574 26.2472843,4.70878035 Z M40.6936255,4.62855 C40.7617457,4.82676618 41.0235826,5.35018078 41.1401319,5.59491839 L41.1801981,5.68098352 L40.8034426,5.89240833 L44.0655738,5.89335799 L44.0655738,6.36530127 L37.467649,6.36530127 L37.467649,5.89335799 L40.7325513,5.89335799 C40.726858,5.85509278 40.7136435,5.81824355 40.6936255,5.78481105 L40.4503392,5.33823471 L40.2070529,4.8881188 L40.6936255,4.62855 Z" id="形状结合"></path>
            </g>
        </g>
    </g>
</svg>