<?xml version="1.0" encoding="UTF-8"?>
<svg width="52px" height="18px" viewBox="0 0 52 18" version="1.1" xmlns="http://www.w3.org/2000/svg" xmlns:xlink="http://www.w3.org/1999/xlink">
    <!-- Generator: Sketch 62 (91390) - https://sketch.com -->
    <title>支付宝@1x</title>
    <desc>Created with Sketch.</desc>
    <g id="页面-1" stroke="none" stroke-width="1" fill="none" fill-rule="evenodd">
        <g id="SVG-切图" transform="translate(-535.000000, -180.000000)" fill="#000000" fill-rule="nonzero">
            <g id="支付宝" transform="translate(535.000000, 180.000000)">
                <path d="M4.5216529,9.73606436 C4.07667487,9.77997971 3.24149574,9.97612799 2.78479589,10.3778721 C1.41565006,11.5651955 2.23485909,13.7368421 5.00509097,13.7368421 C6.61512352,13.7368421 8.22451449,12.7121681 9.48837209,11.0723678 C7.69087724,10.1992864 6.16721503,9.57440122 4.5216529,9.73606436 L4.5216529,9.73606436 Z M14.8430553,11.3021719 C17.4391157,12.1703027 18.027907,12.2169023 18.027907,12.2169023 L18.027907,2.88362109 C18.027907,1.29079688 16.7364776,0 15.1410936,0 L2.88779643,0 C1.2920965,0 0,1.29079688 0,2.88362109 L0,15.1167129 C0,16.7088867 1.29207894,18 2.88781399,18 L15.1410761,18 C16.7364776,18 18.027907,16.7092031 18.027907,15.1167129 L18.027907,14.9987285 C18.027907,14.9987285 13.3387489,13.0470293 10.9707333,11.9102344 C9.38293331,13.8606328 7.33407531,15.0450117 5.20730635,15.0450117 C1.61025338,15.0450117 0.38878234,11.9023066 2.09176345,9.83327344 C2.46339414,9.38285156 3.09507328,8.95194141 4.07561373,8.71038281 C5.60897437,8.33429883 8.05024869,8.94533203 10.3377375,9.69911719 C10.7489557,8.94202734 11.0951661,8.10892969 11.3532484,7.22130469 L4.30300909,7.22130469 L4.30300909,6.50816016 L7.93803444,6.50816016 L7.93803444,5.23026563 L3.53534567,5.23026563 L3.53534567,4.51678711 L7.93803444,4.51678711 L7.93803444,2.69360156 C7.93803444,2.69360156 7.93803444,2.3862832 8.24992404,2.3862832 L10.0264975,2.3862832 L10.0264975,4.51676953 L14.37968,4.51676953 L14.37968,5.23024805 L10.0264975,5.23024805 L10.0264975,6.50814258 L13.580013,6.50814258 C13.2400698,7.89874805 12.7232383,9.17894531 12.075373,10.3028555 C13.1535918,10.6921406 14.1219313,11.0612637 14.8430553,11.3021719 Z M43.8144064,2.79154583 L48.9344308,2.79154583 L48.9344308,3.78947368 L50.7627907,3.78947368 L50.7627907,2.60710455 C50.7621463,2.60418888 50.7621463,2.60322843 50.7621463,2.60000405 C50.7621463,2.33433588 50.5506196,2.11926301 50.2886889,2.11475231 L47.3293712,2.11475231 L47.3293712,1.18421053 L45.4158781,1.18421053 L45.4158781,2.11475231 L41.9860465,2.11475231 L41.9860465,3.78947368 L43.8144064,3.78947368 L43.8144064,2.79152868 L43.8144064,2.79154583 Z M32.6769863,1.42105263 L30.8372093,5.85504744 L32.2483784,5.85504744 L32.2483784,11.1315789 L33.7916095,11.1315789 L33.7916095,4.13266499 L33.2328708,4.13266499 L34.3953488,1.42105263 L32.6770205,1.42105263 L32.6769863,1.42105263 Z M51,10.8704934 L50.4236217,8.90336284 C50.3858522,8.77787232 50.2728581,8.68691951 50.1395292,8.68658402 L48.6126761,8.68658402 L49.0550617,10.1976438 L47.2598913,10.1976438 L47.2598913,7.27112091 L50.7855418,7.27112091 L50.7855418,6.57402788 L47.2598913,6.57402788 L47.2598913,5.19675754 L50.7855418,5.19675754 L50.7855418,4.5 L41.9860465,4.5 L41.9860465,5.19675754 L45.511365,5.19675754 L45.511365,6.57402788 L41.9860465,6.57402788 L41.9860465,7.27113856 L45.511365,7.27113856 L45.511365,10.1976438 L41.9860465,10.1976438 L41.9860465,10.8947368 L51,10.8947368 L50.9927675,10.8708288 L51,10.8708288 L51,10.8704934 L51,10.8704934 Z M36.7529156,4.94228493 C36.6943897,4.82136399 36.5750751,4.73781044 36.4369097,4.73684211 L35.1069767,4.73684211 L36.142647,8.05263158 L37.7162791,8.05263158 L36.7529156,4.94228493 Z M40.12811,1.42105263 L38.473413,1.42105263 L38.473413,3.1235556 L34.3953488,3.1235556 L34.3953488,3.80865419 L38.473413,3.80865419 L38.473413,9.92893187 C38.4591666,10.0686253 38.3471174,10.1783001 38.2062579,10.1854706 L37.3656505,10.1854706 L37.3656505,10.8947368 L39.509926,10.8947368 C39.8490183,10.8807085 40.1208104,10.6032661 40.12811,10.2599008 L40.12811,3.80865419 L40.8,3.80865419 L40.8,3.1235556 L40.12811,3.1235556 L40.12811,1.42105263 Z M29.7483561,4.44451504 L26.5687682,4.44451504 L26.5687682,3.31637329 L30.2553581,3.31637329 L30.2553581,2.61375593 L26.5687682,2.61375593 L26.5687682,1.18421053 L24.9254256,1.18421053 L24.9250904,1.18454235 C24.7450426,1.18454235 24.5994768,1.33360251 24.5994768,1.51811576 L24.5994768,2.61375593 L20.9387441,2.61375593 L20.9387441,3.31637329 L24.5994768,3.31637329 L24.5994768,4.44451504 L21.5097365,4.44451504 L21.5097365,5.14680057 L27.6639949,5.14680057 C27.6639949,5.14680057 27.3231244,6.46504424 25.6350167,7.88210247 C24.1226533,6.74838952 23.6169741,5.8454884 23.6169741,5.8454884 L21.9660118,5.8454884 C22.6338188,6.99168853 23.5831622,7.9096965 24.6051033,8.63791693 C23.6663955,9.24205154 22.448797,9.82451261 20.8744186,10.2900658 L20.8744186,11.1315789 C20.8744186,11.1315789 23.3033013,10.6778318 25.650591,9.30836453 C28.0015494,10.6670038 30.3627907,11.1315789 30.3627907,11.1315789 L30.3627907,10.3350546 C28.8517501,9.7903519 27.6543822,9.19147413 26.7139989,8.61330934 C28.0764929,7.61485953 29.2698746,6.25852562 29.7483561,4.44451504 L29.7483561,4.44451504 Z M24.5906842,15.7680422 L24.8609523,16.5789474 L25.6186047,16.5789474 L24.1264335,12.5526316 L23.5471043,12.5526316 L22.0604651,16.5789474 L22.8184643,16.5789474 L23.1004553,15.7680422 L24.5906842,15.7680422 Z M23.8500435,13.5 L24.4325581,15.1578947 L23.2465116,15.1578947 L23.8500435,13.5 Z M28.227907,12.5526316 L28.227907,16.5789474 L30.6,16.5789474 L30.6,16.030773 L28.9325301,16.030773 L28.9325301,12.5526316 L28.227907,12.5526316 L28.227907,12.5526316 Z M33.2093023,12.5526316 L33.9209302,12.5526316 L33.9209302,16.5789474 L33.2093023,16.5789474 L33.2093023,12.5526316 Z M38.5452844,12.5526316 L37.0046512,12.5526316 L37.0046512,16.5789474 L37.7175516,16.5789474 L37.7175516,15.0313413 L38.5453013,15.0313413 C39.314023,15.0313413 39.8511628,14.5217339 39.8511628,13.7921502 C39.8511628,13.0625664 39.314023,12.5526316 38.5453013,12.5526316 L38.5452844,12.5526316 Z M38.5060791,14.4473684 L37.7162791,14.4473684 L37.7162791,13.0263158 L38.5060961,13.0263158 C38.9025864,13.0263158 39.1395349,13.388921 39.1395349,13.7398465 C39.1395349,14.0827544 38.9176221,14.4473684 38.5060961,14.4473684 L38.5060791,14.4473684 Z M44.2790463,15.7680422 L44.549317,16.5789474 L45.3069767,16.5789474 L43.8144616,12.5526316 L43.2354562,12.5526316 L41.7488372,16.5789474 L42.507156,16.5789474 L42.788508,15.7680422 L44.2790636,15.7680422 L44.2790463,15.7680422 Z M43.5384156,13.5 L44.1209302,15.1578947 L42.9348837,15.1578947 L43.5384156,13.5 Z M49.4651087,12.5526316 L48.6340514,14.2680675 L47.7906872,12.5526316 L46.9674419,12.5526316 L48.2496709,14.9250669 L48.2496709,16.5789474 L49.0057987,16.5789474 L49.0057987,14.9250841 L49.0105656,14.9160024 L50.2883721,12.5526316 L49.4651268,12.5526316 L49.4651087,12.5526316 Z" id="形状"></path>
            </g>
        </g>
    </g>
</svg>