<?xml version="1.0" encoding="UTF-8"?>
<svg width="66px" height="18px" viewBox="0 0 66 18" version="1.1" xmlns="http://www.w3.org/2000/svg" xmlns:xlink="http://www.w3.org/1999/xlink">
    <!-- Generator: Sketch 62 (91390) - https://sketch.com -->
    <title>银联在线@1x</title>
    <desc>Created with Sketch.</desc>
    <g id="页面-1" stroke="none" stroke-width="1" fill="none" fill-rule="evenodd">
        <g id="SVG-切图" transform="translate(-603.000000, -180.000000)">
            <rect id="屏幕底板" fill="none" x="0" y="0" width="750" height="2600"></rect>
            <g id="银联在线" transform="translate(603.000000, 180.000000)" fill-rule="nonzero">
                <g id="编组" transform="translate(0.000000, 1.000000)">
                    <path d="M11.0789526,0.000564390342 C10.1097828,0.0425344287 9.28577523,0.723175176 9.03414731,1.58184367 L9.03414731,1.58184367 L6.0361208,14.344446 C6,14.48825 6,14.6320539 6,14.7758579 C6.03368265,15.4798682 6.53850132,15.9650487 7.16298855,15.9981891 L1.32577904,15.9981918 C0.626062323,16.0341392 0.0368271952,15.5308756 -2.7533531e-14,14.7759802 C-2.7533531e-14,14.6321906 -2.7533531e-14,14.488401 0.0368271952,14.3446114 L3.09348442,1.58328455 C3.35127479,0.720546952 4.19830028,0.0375463576 5.15580737,0.00159895747 Z" id="形状结合" fill-opacity="0.5" fill="#000000"></path>
                    <path d="M18.4616765,0 L18.489,0.001 L18.1779661,0.00159895747 C17.2447657,0.0354318047 16.4416847,0.642432879 16.1361193,1.43299764 L16.0847458,1.58328455 L13.0367232,14.3446114 C13,14.488401 13,14.6321906 13,14.7759802 C13.0367232,15.5308756 13.6242938,16.0341392 14.3220339,15.9981918 L7.30034885,15.9981917 C6.61405362,16.0341426 6.0361208,15.5308288 6,14.7758579 C6,14.6320539 6,14.48825 6.0361208,14.344446 L9.03414731,1.58184367 C9.28699292,0.71901985 10.1177714,0.0359509929 11.093033,0 L18.4616765,0 Z" id="形状结合" fill-opacity="0.75" fill="#000000"></path>
                    <path d="M18.1779661,0.00159895747 L24.6779661,0.00159895747 C25.3757062,-0.034348442 25.9632768,0.540809953 26,1.22381055 C26,1.36760015 26,1.51138975 25.9632768,1.65517935 L22.9519774,14.4165062 C22.6949153,15.3511386 21.8502825,15.9981918 20.9322034,15.9981918 L14.3220339,15.9981918 C13.6242938,16.0341392 13.0367232,15.5308756 13,14.7759802 C13,14.6321906 13,14.488401 13.0367232,14.3446114 L16.0847458,1.58328455 C16.3418079,0.720546952 17.1864407,0.0375463576 18.1779661,0.00159895747" id="路径" fill="#000000"></path>
                    <path d="M13.3807328,9.39593481 L13.2351685,9.88141199 L12.4345651,9.88141199 L12.2890008,10.3295448 L13.1259953,10.3295448 L12.980431,10.8150219 L12.1434365,10.8150219 L11.9614812,11.5245655 C11.9614812,11.6365987 12.1434365,11.6365987 12.2526097,11.6365987 L12.6893025,11.5992543 L12.5437383,12.1967647 L11.5975705,12.1967647 C11.5611795,12.1967647 11.4520063,12.1967647 11.4156152,12.1594203 C11.3792241,12.1594203 11.306442,12.1220759 11.2700509,12.0473871 C11.2336599,12.0100427 11.1608777,11.8980095 11.2336599,11.7859763 L11.5247884,10.8897107 L11.0517046,10.8897107 L11.1972688,10.4042336 L11.6703527,10.4042336 L11.8159169,9.95610079 L11.3428331,9.95610079 L11.3428331,9.39593481 L13.3807328,9.39593481 Z M18.2571356,8.23825846 L18.1479624,8.49966925 C18.2571356,8.38763606 18.4026999,8.35029166 18.5482641,8.31294726 C18.6959223,8.28264199 19.4666746,8.27692968 19.7519899,8.27585296 L19.7491693,8.27560286 L20.5861638,8.27560286 L20.5861638,8.57435805 C20.5861638,8.61170245 20.6225549,8.68639124 20.7317281,8.68639124 L20.8772923,8.68639124 L20.7317281,9.17186842 L20.2950353,9.17186842 C19.8947336,9.20921282 19.7491693,9.02249083 19.7491693,8.83576884 L19.7488433,8.69376469 L19.7127782,8.83576884 L19.4216497,8.83576884 L19.4216497,8.79842444 L18.6574373,11.4498767 L18.8393926,11.4498767 L18.6938284,12.0100427 L18.511873,12.0100427 L18.475482,12.1594203 L17.7476607,12.1594203 L17.7840517,12.0100427 L16.255627,12.0100427 L16.4011912,11.5245655 L16.5467555,11.5245655 L17.3109679,8.79842444 L17.4565321,8.23825846 L18.2571356,8.23825846 Z M21.9326332,9.32124602 L21.787069,9.80672319 L20.9500745,9.80672319 L20.8045102,10.2175116 L21.6415047,10.2175116 L21.4959404,10.6656444 L20.6225549,10.6656444 L20.4769906,10.8523663 L20.8045102,10.8523663 L20.9136834,11.4498767 C20.9136834,11.4872211 20.9136834,11.5619099 20.9500745,11.5619099 C20.9864655,11.5619099 21.0956387,11.5992543 21.1320298,11.5992543 L21.241203,11.5992543 L21.0592477,12.1594203 L20.5861638,12.1594203 C20.5497727,12.1594203 20.4405995,12.1220759 20.4042085,12.0473871 C20.2950353,12.0100427 20.2586442,11.9353539 20.2586442,11.8606651 L20.2222531,11.3004991 L19.8219514,11.8606651 C19.6763872,12.0473871 19.4944318,12.1594203 19.2396944,12.1594203 L18.6938284,12.1594203 L18.8393926,11.6739431 L19.021348,11.6739431 C19.057739,11.6739431 19.1305212,11.6739431 19.1669122,11.6365987 C19.2033033,11.6365987 19.2760854,11.5992543 19.3124765,11.5245655 L19.8583425,10.6656444 L19.057739,10.6656444 L19.2033033,10.2175116 L20.0766889,10.2175116 L20.2222531,9.80672319 L19.3488676,9.80672319 L19.4944318,9.32124602 L21.9326332,9.32124602 Z M16.6195376,8.23825846 L16.2192359,9.5826568 C16.1828448,9.7320344 16.1100627,9.88141199 16.0372806,10.0307896 C16.0008895,10.1428228 15.9281074,10.1801672 15.8553252,10.2175116 C15.746152,10.254856 15.6733699,10.3295448 15.6005878,10.3295448 L14.1449451,10.3295448 L13.8174256,11.3751879 L13.8174256,11.5619099 C13.8538166,11.5992543 13.8538166,11.5992543 13.9265988,11.5992543 L14.2978433,11.5697647 L14.3269005,10.441578 L15.0183307,10.441578 L15.0183307,10.7403332 L15.2730682,10.7403332 C15.2730682,10.7403332 15.3094593,10.7029888 15.3094593,10.6283 L15.3458503,10.3668892 L16.0372806,10.3668892 L16.0372806,10.4042336 L16.0008895,10.7403332 C16.0008895,10.8523663 15.9644984,10.9270551 15.8553252,11.0017439 C15.746152,11.1137771 15.6005878,11.1511215 15.4550235,11.1511215 L15.0547218,11.1511215 L15.0547218,11.4872211 C15.0547218,11.5992543 15.0547218,11.5992543 15.0911129,11.5992543 L15.1275039,11.6365987 L15.6005878,11.6365987 L15.4550235,12.1220759 L15.0183307,12.1220759 C14.8363754,12.1220759 14.618029,12.1220759 14.3996826,12.0847315 C14.3632915,12.0473871 14.2905094,11.9353539 14.2905094,11.8980095 L14.2898433,11.8967647 L14.2177273,12.1220759 L13.2715596,12.1220759 C13.1623864,12.1220759 13.1259953,12.1220759 13.0168221,12.0847315 L12.8712578,11.9353539 C12.8712578,11.8233207 12.9076489,11.7486319 12.9076489,11.6365987 L13.9265988,8.27560286 L14.6544201,8.27560286 L14.5452469,8.61170245 C14.6544201,8.49966925 14.7999843,8.42498046 14.9455486,8.35029166 C15.0911129,8.31294726 15.2730682,8.23825846 15.4914146,8.23825846 L16.6195376,8.23825846 Z M18.1115713,10.8897107 L17.4929232,10.8897107 L17.3109679,11.4872211 L17.929616,11.4872211 L18.1115713,10.8897107 Z M17.8204428,9.80672319 L17.6384875,10.5162668 C17.7476607,10.4789224 17.8932249,10.4042336 17.9660071,10.3668892 C18.1115713,10.3295448 18.2571356,10.3295448 18.2571356,10.3295448 L18.4026999,9.84406759 L17.8204428,9.84406759 L17.8204428,9.80672319 Z M15.4550235,9.6200012 L14.2905094,9.6200012 L14.1813362,9.88141199 L15.3458503,9.88141199 L15.4550235,9.6200012 Z M18.1115713,8.79842444 L17.929616,9.50796801 C18.0387892,9.47062361 18.1843535,9.39593481 18.2571356,9.35859041 C18.3663088,9.35859041 18.4390909,9.32124602 18.5482641,9.32124602 L18.6938284,8.83576884 L18.1115713,8.83576884 L18.1115713,8.79842444 Z M15.746152,8.79842444 L14.5816379,8.79842444 L14.3996826,9.39593481 C14.5816379,9.24655722 14.7999843,9.13452402 15.0183307,9.09717963 L15.6369788,9.09717963 L15.746152,8.79842444 Z M12.8712578,8.23825846 L12.7256936,8.49966925 L13.5626881,8.49966925 L13.4171238,8.98514643 L12.2890008,8.98514643 L12.1434365,9.09717963 C12.1070455,9.13452402 12.0342633,9.13452402 11.9978723,9.13452402 C11.8886991,9.28390162 11.7431348,9.28390162 11.6703527,9.28390162 L11.2700509,9.28390162 L11.4156152,8.79842444 L11.7067437,8.79842444 L11.852308,8.64904685 L12.0342633,8.23825846 L12.8712578,8.23825846 Z M22.6968456,4.87726261 L22.7332367,4.91460701 L22.7696278,6.03493896 L22.7696278,6.07228336 C22.9879741,5.54946178 22.9515831,5.69883938 23.2427116,5.06398461 L23.2427116,5.06398461 L23.2791027,5.02664021 C23.6066223,4.95195141 23.7157955,4.95195141 24.1524883,4.91460701 C24.2252704,4.91460701 22.5876724,7.75278129 22.4784992,8.23825846 L22.4784992,8.23825846 L22.4421082,8.27560286 L22.1145886,8.83576884 C21.9690243,9.02249083 21.7506779,9.17186842 21.4959404,9.13452402 L21.4959404,9.13452402 L21.0228566,9.13452402 L21.1684209,8.64904685 L21.3503762,8.64904685 C21.3503762,8.64904685 21.3867673,8.64904685 21.3867673,8.61170245 L21.3867673,8.61170245 L21.5687226,8.31294726 C21.82346,7.90215888 21.8962422,7.75278129 22.1509796,7.30464851 C22.0781975,6.78182693 22.0781975,6.63244934 22.0418064,6.29634975 C21.9690243,6.10962776 21.9326332,5.88556137 21.9326332,5.69883938 C21.8598511,5.51211739 21.8598511,5.288051 21.82346,5.101329 L21.82346,5.101329 L21.82346,5.06398461 L21.8598511,5.02664021 C22.2601528,4.98929581 22.2601528,4.98929581 22.6968456,4.87726261 L22.6968456,4.87726261 Z M7.95846396,4.95195141 L7.99485502,4.98929581 L7.95846396,5.2507066 C7.99485502,5.2133622 8.10402822,5.1386734 8.14041929,5.1386734 C8.28598355,5.02664021 8.46793888,5.02664021 8.68628527,4.98929581 C8.8682406,4.98929581 9.086587,5.101329 9.12297806,5.2507066 C9.15936913,5.54946178 9.15936913,5.84821697 9.086587,6.14697216 L9.05019593,6.40838295 C8.94102273,6.89386012 8.90463167,7.00589332 8.8682406,7.3793373 L8.7590674,7.19261531 L7.92207289,7.19261531 C7.95846396,7.04323772 7.95846396,6.89386012 8.03124609,6.74448253 L8.06763715,6.55776054 C8.10402822,6.25900535 8.21320142,5.84821697 8.21320142,5.77352817 C8.24959248,5.66149498 8.21320142,5.58680618 8.10402822,5.58680618 L8.06763715,5.58680618 C7.95846396,5.58680618 7.92207289,5.62415058 7.81289969,5.69883938 C7.77650863,5.84821697 7.66733543,6.33369415 7.63094436,6.55776054 C7.52177117,7.00589332 7.52177117,7.04323772 7.4853801,7.30464851 L7.44898903,7.3419929 L6.61199452,7.3419929 L6.61199452,7.30464851 C6.64838559,7.04323772 6.75755878,6.74448253 6.79394985,6.52041614 C6.90312305,6.07228336 6.97590518,5.62415058 7.04868731,5.101329 L7.08507838,5.101329 C7.4853801,5.06398461 7.55816223,5.06398461 7.95846396,4.95195141 Z M14.3996826,4.95195141 L14.4360737,4.98929581 L14.3996826,5.2507066 L14.5816379,5.1386734 C14.7272022,5.02664021 14.9091575,5.02664021 15.1275039,4.98929581 C15.3094593,4.98929581 15.5278057,5.101329 15.5641967,5.2507066 C15.6005878,5.54946178 15.6005878,5.84821697 15.4550235,6.14697216 L15.4186325,6.40838295 C15.3094593,6.89386012 15.2730682,7.00589332 15.2366771,7.3793373 L15.2002861,7.19261531 L14.3632915,7.19261531 C14.3996826,7.04323772 14.3996826,6.89386012 14.4724647,6.74448253 L14.5088558,6.55776054 C14.5452469,6.25900535 14.6544201,5.84821697 14.6544201,5.77352817 C14.6908111,5.66149498 14.6544201,5.58680618 14.5452469,5.58680618 L14.5088558,5.58680618 C14.3996826,5.58680618 14.3632915,5.62415058 14.2541183,5.69883938 C14.2177273,5.84821697 14.1085541,6.33369415 14.072163,6.55776054 C13.9629898,7.00589332 13.9629898,7.04323772 13.9265988,7.30464851 L13.8902077,7.3419929 L13.0532132,7.3419929 L13.0532132,7.30464851 L13.2351685,6.52041614 C13.3443417,6.07228336 13.4171238,5.62415058 13.489906,5.101329 L13.526297,5.101329 C13.9265988,5.06398461 13.9993809,5.06398461 14.3996826,4.95195141 Z M20.1344028,4.90913664 L20.2586442,4.91460701 C20.4042085,4.98929581 20.5133817,5.06398461 20.5497727,5.1760178 L20.5497727,5.1760178 L20.5497727,5.06398461 L20.5861638,5.06398461 C20.9864655,5.02664021 21.0592477,5.02664021 21.4595494,4.91460701 C21.3867673,5.2507066 21.2775941,5.54946178 21.2048119,5.92290577 C21.0592477,6.55776054 20.9864655,6.93120452 20.9500745,7.26730411 L20.9500745,7.26730411 L20.9136834,7.30464851 L20.0402978,7.30464851 L20.0402978,7.26730411 L20.0766889,7.08058212 C19.9311246,7.15527091 19.7855604,7.26730411 19.6399961,7.26730411 C19.4944318,7.26730411 19.3488676,7.19261531 19.2033033,7.15527091 C18.7302194,6.96854892 18.8393926,6.40838295 18.8757837,6.10962776 C18.9121748,5.81087257 19.057739,5.51211738 19.3124765,5.2507066 C19.567214,5.02664021 19.9311246,4.87726261 20.2586442,4.91460701 Z M12.1434365,4.83991822 C12.4345651,4.83991822 12.7256936,4.95195141 12.9076489,5.1386734 C13.1259953,5.40008419 13.1259953,5.73618377 13.0168221,6.03493896 C12.9076489,6.33369415 12.8348668,6.59510494 12.6165204,6.85651573 C12.398174,7.11792651 11.9978723,7.26730411 11.5975705,7.26730411 C11.3792241,7.26730411 11.1972688,7.19261531 11.0517046,7.15527091 C10.5786207,6.93120452 10.6877939,6.33369415 10.724185,6.03493896 C10.760576,5.73618378 10.9061403,5.43742859 11.1608777,5.1760178 C11.4520063,4.95195141 11.8159169,4.83991822 12.1434365,4.83991822 Z M18.1857205,3.23438966 C18.6685652,3.2371954 19.0775887,3.26805854 19.2760854,3.60755307 C19.3852586,3.75693066 19.4216497,3.90630826 19.4216497,4.05568585 C19.4216497,4.13037465 19.4216497,4.27975224 19.3852586,4.39178544 C19.3124765,4.83991822 19.0941301,5.1760178 18.7666105,5.43742859 C18.2935267,5.73618378 17.7112696,5.81087257 17.1654036,5.77352817 L17.1654036,5.77352817 L17.1290125,5.77352817 C17.0562304,5.77352817 17.0562304,5.77352817 17.0198393,5.81087257 C17.0198393,5.88556137 16.8742751,6.37103855 16.8742751,6.37103855 C16.8742751,6.37103855 16.7287108,7.11792651 16.7287108,7.22995971 L16.7287108,7.22995971 L15.746152,7.22995971 L16.3648002,4.57850743 L16.6195376,3.38348668 L16.6559287,3.23410909 Z M4.90161443,3.19676469 L4.90161443,3.23410909 C4.82883229,3.49551987 4.35574844,5.43742859 4.35574844,5.43742859 L4.35574844,5.43742859 L4.24657524,6.03493896 L4.24657524,6.18431656 C4.28296631,6.44572734 4.46492164,6.63244933 4.7196591,6.59510494 C4.90161443,6.63244934 5.04717869,6.55776054 5.19274295,6.44572734 C5.41108935,6.18431655 5.55665361,5.81087257 5.59304468,5.47477299 C5.59304468,5.47477299 6.06612853,3.34614228 6.06612853,3.23410909 L6.06612853,3.23410909 L7.04868731,3.23410909 L7.04868731,3.27145348 C6.93951411,3.49551987 6.46643026,5.51211739 6.46643026,5.51211739 L6.46643026,5.51211739 L6.43003919,5.69883938 C6.35725706,6.18431656 6.06612853,6.63244934 5.66582681,6.89386012 C5.33830722,7.08058212 4.90161442,7.19261531 4.5013127,7.19261531 C4.10101098,7.19261531 3.51875392,7.15527091 3.26401646,6.74448253 C3.19123433,6.59510494 3.15484327,6.44572734 3.15484327,6.29634975 L3.15484327,6.29634975 L3.26401646,5.69883938 L3.30040753,5.51211739 L3.77349138,3.34614228 L3.80988245,3.19676469 C4.17379311,3.23410909 4.57409483,3.23410909 4.90161443,3.19676469 L4.90161443,3.19676469 Z M10.4330564,5.32539539 C10.3966654,5.47477299 10.3238832,5.62415058 10.3238832,5.81087257 L10.2874922,6.37103855 C10.1919656,6.66512568 10.1800248,6.78766199 10.1785322,6.88875444 L10.178319,6.93120452 C10.178319,7.00589332 10.178319,7.00589332 10.0691458,7.19261531 L9.19576019,7.19261531 C9.19576019,7.08058212 9.23215126,6.93120452 9.30493339,6.85651573 C9.34132446,6.74448253 9.34132446,6.66979373 9.41410659,6.52041614 C9.45049765,6.25900535 9.52327979,6.07228336 9.52327979,5.92290577 C9.52327979,5.77352817 9.55967085,5.62415058 9.55967085,5.47477299 L9.99636364,5.43742859 L10.4330564,5.32539539 Z M20.1130799,5.40008419 C19.8583425,5.40008419 19.7855604,5.69883938 19.6763872,6.10962776 C19.6399961,6.25900535 19.6399961,6.37103855 19.6399961,6.52041614 L19.6399961,6.52041614 L19.6399961,6.55776054 C19.6399961,6.63244934 19.7127782,6.74448253 19.8219514,6.74448253 C19.9675157,6.74448253 20.0402978,6.70713813 20.149471,6.59510494 C20.1858621,6.55776054 20.2586442,6.52041614 20.2222531,6.33369415 C20.2950353,6.25900535 20.3314263,6.10962776 20.3314263,5.99759456 L20.3314263,5.99759456 L20.3678174,5.81087257 C20.3678174,5.54946178 20.2586442,5.40008419 20.1130799,5.40008419 Z M11.9978723,5.40008419 C11.7431348,5.40008419 11.6703527,5.69883938 11.5611795,6.10962776 C11.5247884,6.25900535 11.5247884,6.37103855 11.5247884,6.52041614 L11.5247884,6.52041614 L11.5247884,6.55776054 C11.5247884,6.63244934 11.5975705,6.74448253 11.7067437,6.74448253 C11.8159169,6.74448253 11.9250901,6.70713813 11.9614812,6.59510494 C12.0342633,6.44572734 12.1070455,6.22166095 12.1434365,6.03493896 C12.2162187,5.66149498 12.2162187,5.40008419 11.9978723,5.40008419 Z M9.77801725,4.83991822 C9.99636364,4.69054062 10.21471,4.61585183 10.4694475,4.72788502 C10.6877939,4.87726261 10.6150118,5.06398461 10.4330564,5.2133622 C10.21471,5.36273979 9.99636364,5.40008419 9.74162618,5.32539539 C9.52327979,5.1760178 9.59606192,4.98929581 9.77801725,4.83991822 Z M17.5293143,3.79427506 L17.4201411,3.79427506 L17.4201411,3.98099705 L17.1654036,5.1760178 L17.1654036,5.2133622 L17.3473589,5.2133622 C17.5657053,5.2133622 17.7840517,5.2133622 17.9660071,5.101329 C18.2207445,4.95195141 18.3663088,4.76522942 18.4026999,4.50381863 C18.475482,4.20506344 18.4026999,3.94365265 18.1115713,3.83161946 L18.1115713,3.83161946 L17.5293143,3.79427506 Z" id="形状结合" fill="#FFFFFF"></path>
                    <path d="M49.9841375,12.7391304 L50.1655981,14.4057971 L51.1091931,12.7391304 L51.726159,12.7391304 L50.3470586,14.9855072 L50.0930138,15.384058 C50.0567217,15.4927536 49.9478454,15.5652174 49.838969,15.673913 L49.6575085,15.8550725 C49.5486321,15.8913043 49.4760479,15.9637681 49.4034637,15.9637681 C49.2945873,16 49.2220031,16 49.0768346,16 C48.9679583,16 48.8227898,16 48.7502056,15.9637681 L48.7864977,15.4927536 C48.8953741,15.4927536 48.9679583,15.5289855 49.0405425,15.5289855 C49.185711,15.5289855 49.2945873,15.4927536 49.3671715,15.384058 C49.4760479,15.2753623 49.5486321,15.2028986 49.6212163,15.057971 L49.2945873,12.7391304 L49.9841375,12.7391304 Z M32.3461697,12.8115942 C32.4913382,12.8115942 32.6002145,12.8115942 32.6727987,12.9202899 C32.7816751,12.9565217 32.8179672,13.0289855 32.8542593,13.1014493 C32.8905514,13.2101449 32.8905514,13.2463768 32.8905514,13.3550725 C32.8905514,13.5 32.8542593,13.6449275 32.8542593,13.7898551 L32.5276303,15.1304348 L31.9106643,15.1304348 L32.2010012,13.8985507 C32.2372934,13.7536232 32.2372934,13.5724638 32.3098776,13.4275362 C32.3098776,13.3913043 32.2735855,13.2826087 32.2010012,13.2463768 C32.1647091,13.2101449 32.0558328,13.2101449 32.0195407,13.2101449 C31.9106643,13.2101449 31.8380801,13.2463768 31.7292037,13.3188406 C31.6203274,13.3913043 31.5477432,13.4637681 31.4751589,13.5724638 C31.3662826,13.7536232 31.3299905,13.8985507 31.3299905,14.115942 L31.0759457,15.2028986 L30.4589797,15.2028986 L31.0033614,12.884058 L31.5840353,12.884058 L31.4751589,13.2101449 C31.7292037,12.9565217 32.0195407,12.8115942 32.3461697,12.8115942 Z M47.9517791,12.7391304 C48.1332396,12.7391304 48.3509923,12.7391304 48.5324529,12.8478261 C48.6413292,12.884058 48.7139135,12.9927536 48.7864977,13.1014493 C48.8227898,13.2826087 48.7864977,13.5 48.7502056,13.6449275 L48.568745,14.3695652 C48.5324529,14.5144928 48.5324529,14.6594203 48.4598687,14.8043478 C48.4598687,14.9130435 48.4598687,14.9855072 48.4961608,15.1304348 L47.8791948,15.1304348 L47.8791948,14.8405797 C47.7703185,14.9492754 47.62515,15.0217391 47.4799816,15.0942029 C47.3348131,15.1304348 47.2259368,15.2028986 47.0807683,15.2028986 C46.8993077,15.2028986 46.681555,15.1666667 46.5363866,15.0217391 C46.4275102,14.8768116 46.3912181,14.6956522 46.4275102,14.5507246 C46.4638024,14.4057971 46.5363866,14.2971014 46.6089708,14.2246377 C46.7178472,14.115942 46.7904314,14.0434783 46.9355999,13.9710145 C47.0807683,13.9347826 47.2622289,13.8623188 47.4799816,13.826087 C47.6614421,13.7898551 47.915487,13.7173913 48.0969475,13.6811594 L48.0969475,13.6449275 C48.1332396,13.5362319 48.0969475,13.4637681 48.0606554,13.3913043 C47.9517791,13.3550725 47.8791948,13.2826087 47.7340264,13.2826087 C47.62515,13.2826087 47.5525658,13.2826087 47.4436895,13.3188406 C47.4799816,13.3188406 47.3711052,13.4275362 47.3348131,13.4637681 L46.7904314,13.3550725 C46.8993077,13.173913 47.0444762,12.9565217 47.2259368,12.884058 C47.4799816,12.7753623 47.6977343,12.7028986 47.9517791,12.7391304 Z M59.928177,12.8115942 C60.0733454,12.8115942 60.1822218,12.8115942 60.254806,12.9202899 C60.3636823,12.9565217 60.3999744,13.0289855 60.4362666,13.1014493 C60.4725587,13.2101449 60.4725587,13.2463768 60.4725587,13.3550725 C60.4725587,13.5 60.4362666,13.6449275 60.4362666,13.7898551 L60.2185139,15.1304348 L59.6015479,15.1304348 L59.8918848,13.8985507 C59.928177,13.7536232 59.928177,13.5724638 59.928177,13.4275362 C59.928177,13.3913043 59.8918848,13.2826087 59.8193006,13.2463768 C59.7830085,13.2101449 59.6741322,13.2101449 59.63784,13.2101449 C59.5289637,13.2101449 59.4563795,13.2463768 59.3475031,13.3188406 C59.2386268,13.3550725 59.1660425,13.4637681 59.0934583,13.5724638 C58.984582,13.7536232 58.9482899,13.8985507 58.9119977,14.115942 L58.6579529,15.2028986 L58.040987,15.2028986 L58.5853687,12.884058 L59.1660425,12.884058 L59.0571662,13.2101449 C59.311211,12.9565217 59.6015479,12.8115942 59.928177,12.8115942 Z M62.3234565,12.0144928 L62.141996,12.8478261 L62.5049171,12.7391304 L62.3960408,13.2101449 L61.9605354,13.2101449 L61.7790748,14.1884058 C61.7427827,14.2971014 61.7427827,14.442029 61.7427827,14.5144928 C61.7427827,14.5507246 61.7427827,14.5507246 61.7790748,14.6231884 C61.8153669,14.6231884 61.8153669,14.6594203 61.8879512,14.6594203 C61.9968275,14.6594203 62.0694117,14.6231884 62.141996,14.6231884 L62.1057038,15.0942029 C61.9605354,15.1304348 61.7790748,15.2028986 61.5613221,15.2028986 C61.4524458,15.2028986 61.3798615,15.2028986 61.2709852,15.1666667 C61.2346931,15.1304348 61.1258167,15.057971 61.1258167,15.0217391 C61.0895246,14.9130435 61.0895246,14.8768116 61.0895246,14.7681159 C61.0895246,14.6231884 61.1258167,14.4782609 61.198401,14.3333333 L61.4524458,13.3188406 L61.1621089,13.3188406 L61.2709852,12.8478261 L61.5613221,12.8478261 L61.7064906,12.0144928 L62.3234565,12.0144928 Z M37.6085263,12.8115942 C37.7536948,12.8115942 37.8625711,12.8115942 37.9351554,12.9202899 C38.0440317,12.9565217 38.0803238,13.0289855 38.116616,13.1014493 C38.1529081,13.2101449 38.1529081,13.2463768 38.1529081,13.3550725 C38.1529081,13.5 38.116616,13.6449275 38.116616,13.7898551 L37.7899869,15.1304348 L37.173021,15.1304348 L37.4633579,13.8985507 C37.49965,13.7536232 37.49965,13.5724638 37.5722342,13.4275362 C37.5722342,13.3913043 37.5359421,13.2826087 37.4633579,13.2463768 C37.4270658,13.2101449 37.3181894,13.2101449 37.2818973,13.2101449 C37.173021,13.2101449 37.1004367,13.2463768 36.9915604,13.3188406 C36.882684,13.3550725 36.8100998,13.4637681 36.7375156,13.5724638 C36.6286392,13.7536232 36.5923471,13.8985507 36.5923471,14.115942 L36.3383023,15.2028986 L35.7213364,15.2028986 L36.2657181,12.884058 L36.8463919,12.884058 L36.7375156,13.2101449 C36.9915604,12.9565217 37.2818973,12.8115942 37.6085263,12.8115942 Z M57.7506501,12.9927536 C57.8958185,13.3188406 57.9321106,13.7173913 57.7869422,14.0797101 L56.2263812,14.0797101 C56.1900891,14.2246377 56.1900891,14.3695652 56.2626734,14.5144928 C56.3715497,14.6231884 56.4441339,14.6594203 56.5893024,14.6594203 C56.6981787,14.6594203 56.770763,14.6231884 56.8433472,14.5507246 C56.9885157,14.5507246 57.0248078,14.442029 57.097392,14.3333333 L57.6780658,14.442029 C57.5691895,14.6231884 57.3877289,14.8405797 57.2062683,14.9855072 C57.0248078,15.1304348 56.770763,15.1666667 56.5167182,15.1666667 C56.1900891,15.2028986 55.8997522,15.057971 55.6819995,14.7681159 C55.5731232,14.5144928 55.5368311,14.2246377 55.6457074,13.9347826 C55.6819995,13.6086957 55.8997522,13.2463768 56.1900891,12.9927536 C56.4441339,12.8115942 56.7344709,12.6666667 57.0248078,12.6666667 C57.3151447,12.6304348 57.6054816,12.7753623 57.7506501,12.9927536 Z M40.6207719,12.9927536 C40.7659403,13.3188406 40.8022324,13.7173913 40.657064,14.0797101 L39.0965031,14.0797101 C39.0602109,14.2246377 39.0965031,14.3695652 39.1327952,14.5144928 C39.2416715,14.6231884 39.3142557,14.6594203 39.4594242,14.6594203 C39.5683005,14.6594203 39.6408848,14.6231884 39.713469,14.5507246 C39.8586375,14.5507246 39.9312217,14.442029 39.9675138,14.3333333 L40.5481876,14.442029 C40.4393113,14.6231884 40.2578507,14.8405797 40.0763902,14.9855072 C39.8949296,15.1304348 39.6408848,15.1666667 39.38684,15.1666667 C39.0602109,15.2028986 38.769874,15.057971 38.5521213,14.7681159 C38.443245,14.5144928 38.4069529,14.2246377 38.5158292,13.9347826 C38.5521213,13.6086957 38.769874,13.2463768 39.0602109,12.9927536 C39.3142557,12.8115942 39.6045927,12.6666667 39.8949296,12.6666667 C40.1852665,12.6304348 40.4756034,12.7753623 40.6207719,12.9927536 Z M30.0234743,12.2318841 C30.2775192,12.6304348 30.3138113,13.0652174 30.1686428,13.4637681 C30.0597665,13.9347826 29.8420138,14.4057971 29.4428005,14.6956522 C29.1161715,14.9855072 28.644374,15.1304348 28.1725765,15.1304348 C27.7733632,15.1666667 27.4104421,14.9855072 27.083813,14.6956522 C27.0112288,14.3333333 26.9386446,13.8985507 27.083813,13.5 C27.1201052,13.2101449 27.2652736,12.9202899 27.4104421,12.6666667 C27.5193184,12.5217391 27.6644869,12.3768116 27.8096553,12.2318841 C27.9548238,12.0869565 28.0999923,11.9782609 28.2814528,11.942029 C28.5354976,11.8333333 28.7532503,11.7971014 29.0072951,11.7971014 C29.4065084,11.7608696 29.8057217,11.942029 30.0234743,12.2318841 Z M54.7021124,12.6666667 C54.8472809,12.6666667 54.9924493,12.7028986 55.1013257,12.7753623 C55.210202,12.884058 55.2827863,12.9565217 55.2827863,13.0652174 C55.2827863,13.2101449 55.2827863,13.3913043 55.2464941,13.5362319 L54.9198651,15.057971 L54.3028992,15.057971 L54.5932361,13.6811594 C54.6295282,13.5362319 54.6295282,13.3913043 54.6295282,13.2463768 C54.5932361,13.1376812 54.4843597,13.1014493 54.3754834,13.1014493 C54.266607,13.1014493 54.1940228,13.1376812 54.1214386,13.2101449 C54.0125622,13.2463768 53.9762701,13.3550725 53.939978,13.4637681 C53.8311017,13.6086957 53.7948096,13.7898551 53.7948096,13.9347826 L53.5407647,15.057971 L52.9237988,15.057971 L53.2141357,13.7898551 C53.2504278,13.6449275 53.2504278,13.5 53.2504278,13.3550725 C53.2504278,13.3188406 53.2141357,13.2463768 53.2141357,13.2101449 C53.1778436,13.173913 53.1052594,13.173913 53.0326751,13.173913 C52.9237988,13.173913 52.8512146,13.2101449 52.7423382,13.2826087 C52.6334619,13.3188406 52.5971698,13.4275362 52.5608776,13.5362319 C52.4520013,13.6811594 52.4157092,13.8623188 52.4157092,14.0072464 L52.1616644,15.1304348 L51.5446984,15.1304348 L52.0164959,12.7391304 L52.5971698,12.7391304 L52.4882934,13.0652174 C52.669754,12.8115942 52.9600909,12.7391304 53.3230121,12.6666667 C53.4681805,12.6666667 53.5770569,12.7028986 53.7222253,12.7753623 C53.8311017,12.8115942 53.9036859,12.9202899 53.9036859,13.0652174 C54.0125622,12.9565217 54.1577307,12.884058 54.3028992,12.7753623 C54.4480676,12.7391304 54.556944,12.6666667 54.7021124,12.6666667 Z M35.5761679,12.8115942 L35.0317862,15.1304348 L34.4148202,15.1304348 L34.959202,12.8115942 L35.5761679,12.8115942 Z M34.4874045,11.8695652 L33.7615622,15.1304348 L33.1445962,15.1304348 L33.8704385,11.8695652 L34.4874045,11.8695652 Z M45.3024547,11.8695652 C45.5564995,11.8695652 45.8468364,11.8695652 46.0645891,11.9057971 C46.2460497,11.942029 46.354926,12.0507246 46.4638024,12.2318841 C46.5726787,12.4130435 46.5726787,12.6666667 46.5000945,12.8478261 C46.4638024,13.0289855 46.3912181,13.173913 46.2460497,13.3188406 C46.0645891,13.5724638 45.8105443,13.7536232 45.5202074,13.7898551 C45.2661626,13.826087 45.084702,13.826087 44.8306572,13.826087 L44.3951518,13.826087 L44.1048149,15.057971 L43.503,15.057 L44.2136912,11.8695652 L45.3024547,11.8695652 Z M48.0606554,13.9710145 C47.915487,14.0072464 47.8066106,14.0072464 47.6614421,14.0797101 C47.5162737,14.0797101 47.4073973,14.115942 47.3348131,14.1884058 C47.2259368,14.2246377 47.1896447,14.3333333 47.1896447,14.3695652 C47.1896447,14.4782609 47.1896447,14.5144928 47.2259368,14.6231884 C47.2622289,14.6594203 47.3711052,14.7318841 47.4799816,14.7318841 C47.62515,14.7318841 47.7340264,14.6956522 47.8066106,14.6231884 C47.915487,14.5869565 47.9517791,14.5144928 47.9880712,14.442029 C48.0243633,14.3333333 48.0969475,14.2608696 48.0969475,14.1521739 L48.0606554,13.9710145 Z M28.8984188,12.3405797 C28.644374,12.3405797 28.3540371,12.4492754 28.1725765,12.6304348 C27.9911159,12.884058 27.8459475,13.173913 27.7733632,13.5 C27.6644869,13.7898551 27.7370711,14.0797101 27.8096553,14.3333333 C27.9548238,14.5144928 28.1362844,14.6231884 28.3903292,14.6231884 C28.644374,14.6231884 28.9347109,14.5144928 29.0798794,14.3333333 C29.3339242,14.0797101 29.4790926,13.7898551 29.5153847,13.4637681 C29.6242611,13.173913 29.6242611,12.884058 29.4790926,12.6304348 C29.3339242,12.4492754 29.1524636,12.3405797 28.8984188,12.3405797 Z M39.8223453,13.173913 C39.6771769,13.173913 39.5320084,13.2101449 39.4231321,13.3188406 C39.3142557,13.4275362 39.2416715,13.5724638 39.1690873,13.7173913 L40.1489744,13.7173913 C40.1852665,13.5724638 40.1852665,13.4275362 40.1126823,13.3188406 C40.0763902,13.2101449 39.9312217,13.173913 39.8223453,13.173913 Z M56.9522235,13.173913 C56.8070551,13.173913 56.6618866,13.2101449 56.5530103,13.3188406 C56.4441339,13.4275362 56.3715497,13.5724638 56.2989655,13.7173913 L57.2788526,13.7173913 C57.3151447,13.5724638 57.3151447,13.4275362 57.2425605,13.3188406 C57.2062683,13.2101449 57.0610999,13.173913 56.9522235,13.173913 Z M44.758073,12.4130435 L44.5766124,13.3550725 L44.9032414,13.3550725 C45.084702,13.3550725 45.2298705,13.3550725 45.4476231,13.3188406 C45.5564995,13.2826087 45.6290837,13.2101449 45.7016679,13.173913 C45.7379601,13.1376812 45.8105443,13.0289855 45.8468364,12.9202899 C45.8831285,12.8115942 45.8468364,12.7391304 45.8105443,12.6304348 C45.7742522,12.5217391 45.6653758,12.4855072 45.5564995,12.4855072 L45.084702,12.4855072 L44.758073,12.4130435 Z M35.7939206,11.8695652 L35.61246,12.4492754 L35.0317862,12.4492754 L35.1769547,11.8695652 L35.7939206,11.8695652 Z M60.1096375,1.07246377 L60.0007612,1.25362319 C59.9644691,1.36231884 59.6741322,1.83333333 59.5289637,2.08695652 C59.4811334,2.17377632 59.4343451,2.25851572 59.3885987,2.34117472 L63.0855909,2.34057971 L63.3759279,1.07246377 L64.3921071,1.07246377 L64.2106465,2.44927536 L64.5009834,2.44927536 C64.682444,2.44927536 64.8639046,2.48550725 64.9727809,2.63043478 C65.009073,2.73913043 65.009073,2.88405797 64.9727809,3.02898551 L64.9727809,3.02898551 L64.0291859,3.02898551 L62.6500856,8.97101449 C62.5775013,9.29710145 62.2145802,9.55072464 61.8879512,9.55072464 L61.8879512,9.55072464 L60.0733454,9.55072464 C59.8193006,9.58695652 59.6015479,9.47826087 59.4926716,9.29710145 L59.4926716,9.29710145 L59.4926716,8.97101449 L61.0169404,8.97101449 C61.2346931,9.00724638 61.4887379,8.89855072 61.6339064,8.7173913 C61.6701985,8.5 61.7790748,8.35507246 61.7790748,8.17391304 L61.7790748,8.17391304 L62.9404225,2.95652174 L62.9404225,2.92028985 L59.0652954,2.9216487 C58.868728,3.27203572 58.6966551,3.57351514 58.5490766,3.82608696 L58.5490766,3.82608696 L57.2425605,9.47826087 L56.2263812,9.47826087 L57.1336841,5.42028985 C56.8796393,5.52898551 56.5893024,5.56521739 56.2989655,5.56521739 L56.2989655,5.56521739 L56.153797,5.56521739 L56.2989655,4.94927536 C56.6618866,4.87681159 57.1336841,4.36956522 57.6780658,3.5 C58.040987,2.99275362 58.6216608,2.01449275 59.0571662,1.18115942 L59.0571662,1.18115942 L59.0934583,1.07246377 L60.1096375,1.07246377 Z M41.3103221,1 C41.3103221,1 39.2779636,3.24637681 38.7335819,3.86231884 L38.7335819,3.86231884 L38.4069529,4.29710145 L39.3505479,4.29710145 C39.6045927,4.11594203 40.4756034,3.13768116 40.8748167,2.70289855 L40.8748167,2.70289855 L40.983693,2.66666667 C41.1288615,2.48550725 41.3466142,2.37681159 41.600659,2.37681159 L41.600659,2.37681159 L42.502,2.376 L42.6168382,1.14492754 L43.6330174,1.14492754 L43.518,2.376 L45.411331,2.37681159 C45.5625482,2.37681159 45.6885625,2.45229469 45.7893739,2.58229334 L45.8468364,2.66666667 C45.8831285,2.77536232 45.8831285,2.84782609 45.8831285,2.95652174 L45.8831285,2.95652174 L43.468,2.91 L43.332,4.369 L44.9395335,4.36956522 C45.1261787,4.36956522 45.2594967,4.39618456 45.3166329,4.49505641 L45.3387468,4.55072464 C45.411331,4.69565217 45.411331,4.80434783 45.3750389,4.94927536 L45.3750389,4.94927536 L43.278,4.949 L43.092618,6.95021512 C43.107803,6.93980004 43.1226658,6.9290198 43.1371932,6.9178744 L43.2338041,6.83333333 C43.5604332,6.47101449 43.8507701,6.03623188 44.1048149,5.60144928 L44.1048149,5.60144928 L45.2298705,5.60144928 C44.8669493,6.18115942 44.467736,6.6884058 43.9959386,7.15942029 C43.6481731,7.43717095 43.3753872,7.58184575 43.0259009,7.65720397 L42.9434672,8.53623188 L42.9434672,8.57246377 C42.9797593,8.78985507 43.197512,8.93478261 43.3789726,8.89855072 L43.3789726,8.89855072 L44.9032414,8.89855072 C44.8306572,9.04347826 44.758073,9.1884058 44.6491966,9.29710145 C44.467736,9.44202899 44.2499834,9.47826087 44.0322307,9.55072464 L44.0322307,9.55072464 L43.0886357,9.55072464 C42.0724565,9.55072464 41.8909959,9.04347826 41.927288,8.60869565 L41.927288,8.60869565 L42.0107631,7.73712093 C41.8344941,7.73913043 41.6388994,7.73913043 41.4191984,7.73913043 L40.1489744,7.73913043 C40.1489744,7.5942029 40.2578507,7.41304348 40.4030192,7.30434783 C40.5844798,7.19565217 40.8022324,7.15942029 40.983693,7.15942029 L40.983693,7.15942029 L42.061,7.159 L42.265,4.949 L40.6933561,4.94927536 C40.6933561,4.83333333 40.7165831,4.76376812 40.7816185,4.68492754 L40.8385246,4.62318841 C40.9474009,4.47826087 41.0925694,4.36956522 41.2740299,4.36956522 L41.2740299,4.36956522 L42.318,4.369 L42.455,2.891 L42.0724565,2.88405797 C41.7549005,2.91576087 41.4929168,3.03068388 41.3108182,3.25309952 L41.2377378,3.35507246 C40.8022324,3.82608696 37.9351554,7.05072464 37.9351554,7.05072464 L37.9351554,7.05072464 L39.9675138,7.05072464 C39.9675138,7.19565217 39.9312217,7.34057971 39.8223453,7.44927536 C39.713469,7.52173913 39.5320084,7.63043478 39.38684,7.63043478 L39.38684,7.63043478 L37.4270658,7.63043478 C37.4270658,7.63043478 36.7738077,7.5942029 36.882684,7.19565217 L36.882684,7.19565217 L36.884,7.182 L36.8876198,7.12724638 C36.8980719,7.02637681 36.9268153,6.93594203 36.989528,6.84811594 L37.0641446,6.76086957 C37.49965,6.32608696 37.9351554,5.85507246 38.8061661,4.87681159 L38.8061661,4.87681159 L37.9714475,4.87681159 C37.8625711,4.91304348 37.7536948,4.91304348 37.7174027,4.87681159 C37.49965,4.76811594 37.3544815,4.55072464 37.4633579,4.29710145 C37.49965,4.15217391 37.5359421,4.00724638 37.6448185,3.89855072 C38.3343686,3.17391304 39.8949296,1.32608696 39.8949296,1.32608696 C39.9675138,1.18115942 40.0763902,1.07246377 40.2215586,1.03623188 C40.330435,1.03623188 40.4030192,1 40.5118955,1 L40.5118955,1 Z M33.4712253,1.07246377 L32.5276303,2.19565217 L32.3824618,2.37681159 L35.9390891,2.37681159 C36.0842575,2.37681159 36.2657181,2.41304348 36.3745944,2.55797101 C36.4108866,2.70289855 36.4471787,2.8115942 36.4108866,2.95652174 L36.4108866,2.95652174 L31.8743722,2.95652174 L30.2049349,4.91304348 L29.4428005,8.17391304 C29.4065084,8.31884058 29.4065084,8.46376812 29.4428005,8.60869565 C29.5153847,8.78985507 29.7331374,8.89855072 29.914598,8.89855072 L29.914598,8.89855072 L31.6203274,8.89855072 L32.2372934,6.18115942 L30.3863955,6.18115942 C30.3863955,6.03623188 30.4589797,5.85507246 30.5678561,5.74637681 C30.7130245,5.63768116 30.9307772,5.56521739 31.1122378,5.60144928 L31.1122378,5.60144928 L32.3461697,5.60144928 L32.7816751,3.64492754 L33.8704385,3.64492754 L33.4349331,5.60144928 L34.7051572,5.60144928 C34.8866177,5.56521739 35.0317862,5.63768116 35.1769547,5.74637681 C35.2495389,5.89130435 35.2495389,6.03623188 35.2132468,6.18115942 L35.2132468,6.18115942 L33.3260568,6.18115942 L32.7090908,8.89855072 L35.0317862,8.89855072 C35.0317862,9.04347826 34.9954941,9.15217391 34.8140335,9.26086957 C34.5962808,9.47826087 34.3785281,9.51449275 34.1244833,9.51449275 L34.1244833,9.51449275 L28.7169582,9.51449275 C28.5717898,9.51449275 28.4266213,9.44202899 28.2814528,9.33333333 C28.1725765,9.1884058 28.1362844,9.04347826 28.1725765,8.89855072 L28.1725765,8.89855072 L28.8621267,5.89130435 C28.5354976,6.18115942 28.1362844,6.36231884 27.700779,6.50724638 C27.7370711,6.39855072 27.8459475,5.92753623 27.8459475,5.92753623 C28.6806661,5.49275362 28.7532503,5.27536232 30.6404403,2.95652174 L30.6404403,2.95652174 L28.6080819,2.95652174 C28.6080819,2.77536232 28.7532503,2.5942029 28.8984188,2.48550725 C29.0435872,2.41304348 29.1887557,2.37681159 29.3339242,2.37681159 L29.3339242,2.37681159 L31.1485299,2.37681159 C31.2574063,2.23188406 32.128417,1.18115942 32.2372934,1.07246377 L32.2372934,1.07246377 L33.4712253,1.07246377 Z M52.3794171,1.10869565 L52.0890802,2.37681159 L54.9198651,2.37681159 C55.0650336,2.37681159 55.210202,2.44927536 55.3190784,2.55797101 C55.3916626,2.70289855 55.3916626,2.84782609 55.3553705,2.99275362 L55.3553705,2.99275362 L51.9802038,2.99275362 L51.6535748,4.4057971 L53.6859332,4.4057971 C53.9762701,4.4057971 54.1940228,4.58695652 54.2303149,4.87681159 C54.2303149,5.27536232 54.0488544,5.60144928 53.7585174,5.85507246 C52.996383,6.32608696 52.1616644,6.83333333 51.3269457,7.30434783 C52.0164959,7.88405797 52.7423382,8.35507246 53.5770569,8.75362319 C53.8311017,8.78985507 54.1214386,8.86231884 54.4117755,8.89855072 C54.3391913,9.04347826 54.3028992,9.1884058 54.1577307,9.29710145 C54.0488544,9.33333333 53.9036859,9.44202899 53.6859332,9.44202899 L53.6859332,9.44202899 L52.8149225,9.44202899 C52.343125,9.22463768 50.4196429,7.95652174 50.3107665,7.84782609 C49.9478454,8.10144928 49.4034637,8.39130435 48.7139135,8.7173913 C48.1695318,9.00724638 47.5888579,9.26086956 47.0081841,9.44202899 L47.0081841,9.44202899 L46.1734654,9.44202899 C46.028297,9.44202899 45.8831285,9.4057971 45.8468364,9.26086957 C45.8105443,9.15217391 45.7742522,9.00724638 45.8105443,8.86231884 L45.8105443,8.86231884 L46.7904314,8.7173913 C47.2259368,8.64492754 47.6614421,8.5 48.0606554,8.24637681 C48.7139135,7.88405797 49.2582952,7.55797101 49.7300927,7.26811594 L49.7300927,7.26811594 L47.8791948,5.56521739 L49.0042504,5.56521739 C49.185711,5.56521739 49.3308794,5.60144928 49.4760479,5.74637681 C49.9115533,6.14492754 50.4922271,6.61594203 50.6011034,6.72463768 C51.0003167,6.50724638 51.9802038,5.89130435 52.7423382,5.42028985 C53.2141357,5.20289855 53.0326751,4.94927536 52.8875067,4.94927536 L52.8875067,4.94927536 L47.7703185,4.94927536 C47.8066106,4.80434783 47.8429027,4.65942029 47.9517791,4.55072464 C48.0969475,4.47826087 48.242116,4.36956522 48.4235766,4.36956522 L48.4235766,4.36956522 L50.5648113,4.36956522 L50.8914404,2.95652174 L47.4799816,2.95652174 C47.4799816,2.8115942 47.5888579,2.63043478 47.7340264,2.52173913 C47.8429027,2.41304348 48.0243633,2.37681159 48.1695318,2.37681159 L48.1695318,2.37681159 L51.0003167,2.37681159 L51.2906536,1.10869565 L52.3794171,1.10869565 Z M39.8949296,8.2826087 C39.9312217,8.46376812 39.8586375,8.53623188 39.713469,8.64492754 C39.6045927,8.78985507 39.4231321,8.93478261 39.2416715,8.93478261 L36.4108866,9.4057971 C36.4471787,9.15217391 36.556055,8.97101449 36.7012235,8.78985507 C36.8463919,8.64492754 36.9915604,8.53623188 37.173021,8.53623188 L39.8949296,8.2826087 Z M60.5451429,4.29710145 C60.6903114,4.29710145 60.8354798,4.33333333 60.9443562,4.44202899 C61.0532325,4.65942029 61.4887379,5.85507246 61.6701985,6.10869565 L61.6701985,6.10869565 L60.7239992,6.10842307 C60.4707945,6.10542472 60.4513883,6.06944444 60.2185139,5.63768116 C60.0007612,5.13043478 59.6741322,4.33333333 59.7830085,4.29710145 L59.7830085,4.29710145 Z M44.8669493,1.03623188 C44.9758257,1.03623188 45.1209941,1.07246377 45.1572862,1.18115942 C45.2661626,1.39855072 45.411331,1.86956522 45.5927916,2.12318841 L45.5927916,2.12318841 L44.8669493,2.12318841 C44.5766124,2.08695652 44.6491966,2.12318841 44.3951518,1.65217391 L44.3951518,1.65217391 L44.1048149,1.03623188 Z" id="形状结合" fill="#000000"></path>
                </g>
            </g>
        </g>
    </g>
</svg>